<?xml version="1.0" encoding="UTF-8" standalone="no"?>
<!-- Created by Symbolator http://kevinpt.github.io/symbolator -->
<svg xmlns="http://www.w3.org/2000/svg"
xmlns:xlink="http://www.w3.org/1999/xlink"
xml:space="preserve"
width="479" height="336" viewBox="-78 -20 479.0 336.0" version="1.1">
<style type="text/css">
<![CDATA[
.fnt1 {fill:#000000;
    font-family:Times; font-size:12pt; font-weight:normal; font-style:italic;}
.fnt2 {fill:#000000;
    font-family:Helvetica; font-size:12pt; font-weight:normal; font-style:normal;}
.label {fill:#000;
  text-anchor:middle;
  font-size:16pt; font-weight:bold; font-family:Sans;}
.link {fill: #0D47A1;}
.link:hover {fill: #0D47A1; text-decoration:underline;}
.link:visited {fill: #4A148C;}
]]>
</style>
<defs>
<marker id="bubble" markerWidth="7.0" markerHeight="7.0" viewBox="0 0 7.0 7.0" refX="3.5" refY="3.5" orient="auto" markerUnits="userSpaceOnUse">
<g transform="translate(3.5,3.5)"><ellipse cx="0.0" cy="0.0" rx="3.0" ry="3.0" stroke="#000000" fill="#FFFFFF" stroke-width="1"/>
</g>
</marker>
<marker id="clock" markerWidth="8.0" markerHeight="15.0" viewBox="0 0 8.0 15.0" refX="0.5" refY="7.5" orient="auto" markerUnits="userSpaceOnUse">
<g transform="translate(0.5,7.5)"><path d="M 0 -7 L 0 7 L 7 0 z" stroke="#000000" fill="#FFFFFF" stroke-width="1"/>
</g>
</marker>
</defs>
<rect x="-78" y="-20" width="100%" height="100%" fill="white"/><g transform="translate(0,0)">
<rect x="0" y="-15.0" width="300" height="73.0" stroke="#000000" fill="#FECFCF" stroke-width="1"/>
<text class="fnt1" x="150.0" y="0" text-anchor="middle" dy="6.5">Clocking</text>
<g transform="translate(0,23)">
<line x1="-20" y1="0" x2="0" y2="0" stroke="#000000" fill="none" stroke-width="1" marker-end="url(#clock)"/>
<text class="fnt2" x="10" y="0" text-anchor="normal" dy="7.0">clk</text>
</g>
<g transform="translate(0,43)">
<line x1="-20" y1="0" x2="-3.5" y2="0.0" stroke="#000000" fill="none" stroke-width="1" marker-end="url(#bubble)"/>
<text class="fnt2" x="10" y="0" text-anchor="normal" dy="7.0">rst_n</text>
</g>
</g>
<g transform="translate(0,73.0)">
<rect x="0" y="-15.0" width="300" height="53.0" stroke="#000000" fill="#CCFED2" stroke-width="1"/>
<text class="fnt1" x="150.0" y="0" text-anchor="middle" dy="6.5">Memory Bus</text>
<g transform="translate(0,23)">
<line x1="-20" y1="0" x2="0" y2="0" stroke="#000000" fill="none" stroke-width="3"/>
<text class="fnt2" x="10" y="0" text-anchor="normal" dy="7.0">imem_data</text>
<text class="fnt2" x="-30" y="0" text-anchor="end" dy="7.0" style="fill:#969696"> <tspan fill="#039BE5">[63:0]</tspan></text>
</g>
<g transform="translate(300,23)">
<line x1="20" y1="0" x2="0" y2="0" stroke="#000000" fill="none" stroke-width="3"/>
<text class="fnt2" x="-10" y="0" text-anchor="end" dy="7.0">imem_addr</text>
<text class="fnt2" x="30" y="0" text-anchor="normal" dy="7.0" style="fill:#969696"> <tspan fill="#039BE5">[63:0]</tspan></text>
</g>
</g>
<g transform="translate(0,126.0)">
<rect x="0" y="-15.0" width="300" height="53.0" stroke="#000000" fill="#FFF6B1" stroke-width="1"/>
<text class="fnt1" x="150.0" y="0" text-anchor="middle" dy="6.5">Memory Bus Control</text>
<g transform="translate(0,23)">
<line x1="-20" y1="0" x2="0" y2="0" stroke="#000000" fill="none" stroke-width="1"/>
<text class="fnt2" x="10" y="0" text-anchor="normal" dy="7.0">imem_data_valid</text>
</g>
<g transform="translate(300,23)">
<line x1="20" y1="0" x2="0" y2="0" stroke="#000000" fill="none" stroke-width="1"/>
<text class="fnt2" x="-10" y="0" text-anchor="end" dy="7.0">imem_addr_valid</text>
</g>
</g>
<g transform="translate(0,179.0)">
<rect x="0" y="-15.0" width="300" height="73.0" stroke="#000000" fill="#CCFED2" stroke-width="1"/>
<text class="fnt1" x="150.0" y="0" text-anchor="middle" dy="6.5">Pipeline Data</text>
<g transform="translate(0,23)">
<line x1="-20" y1="0" x2="0" y2="0" stroke="#000000" fill="none" stroke-width="3"/>
<text class="fnt2" x="10" y="0" text-anchor="normal" dy="7.0">jump_pc</text>
<text class="fnt2" x="-30" y="0" text-anchor="end" dy="7.0" style="fill:#969696"> <tspan fill="#039BE5">[63:0]</tspan></text>
</g>
<g transform="translate(300,23)">
<line x1="20" y1="0" x2="0" y2="0" stroke="#000000" fill="none" stroke-width="3"/>
<text class="fnt2" x="-10" y="0" text-anchor="end" dy="7.0">inst_data</text>
<text class="fnt2" x="30" y="0" text-anchor="normal" dy="7.0" style="fill:#969696">reg <tspan fill="#039BE5">[63:0]</tspan></text>
</g>
<g transform="translate(300,43)">
<line x1="20" y1="0" x2="0" y2="0" stroke="#000000" fill="none" stroke-width="3"/>
<text class="fnt2" x="-10" y="0" text-anchor="end" dy="7.0">next_jump_pc</text>
<text class="fnt2" x="30" y="0" text-anchor="normal" dy="7.0" style="fill:#969696"> <tspan fill="#039BE5">[63:0]</tspan></text>
</g>
</g>
<g transform="translate(0,252.0)">
<rect x="0" y="-15.0" width="300" height="73.0" stroke="#000000" fill="#FFF6B1" stroke-width="1"/>
<text class="fnt1" x="150.0" y="0" text-anchor="middle" dy="6.5">Pipeline Status</text>
<g transform="translate(0,23)">
<line x1="-20" y1="0" x2="0" y2="0" stroke="#000000" fill="none" stroke-width="1"/>
<text class="fnt2" x="10" y="0" text-anchor="normal" dy="7.0">do_jump</text>
</g>
<g transform="translate(0,43)">
<line x1="-20" y1="0" x2="0" y2="0" stroke="#000000" fill="none" stroke-width="1"/>
<text class="fnt2" x="10" y="0" text-anchor="normal" dy="7.0">stall</text>
</g>
</g>
<rect x="1.0" y="-14.0" width="298.0" height="323.0" stroke="#000000" fill="none" stroke-width="3"/>
</svg>