<svg xmlns="http://www.w3.org/2000/svg" width="609" height="85" viewBox="0 0 609 85">
  <g transform="translate(4.5,0.5)">
    <g stroke="black" stroke-width="1" stroke-linecap="round" transform="translate(0,20)">
      <line x2="600"/>
      <line y2="40"/>
      <line x2="600" y1="40" y2="40"/>
      <line x1="600" x2="600" y2="40"/>
      <line x1="562.5" x2="562.5" y2="40"/>
      <line x1="525" x2="525" y2="5"/>
      <line x1="525" x2="525" y1="35" y2="40"/>
      <line x1="487.5" x2="487.5" y2="5"/>
      <line x1="487.5" x2="487.5" y1="35" y2="40"/>
      <line x1="450" x2="450" y2="40"/>
      <line x1="412.5" x2="412.5" y2="5"/>
      <line x1="412.5" x2="412.5" y1="35" y2="40"/>
      <line x1="375" x2="375" y2="5"/>
      <line x1="375" x2="375" y1="35" y2="40"/>
      <line x1="337.5" x2="337.5" y2="5"/>
      <line x1="337.5" x2="337.5" y1="35" y2="40"/>
      <line x1="300" x2="300" y2="5"/>
      <line x1="300" x2="300" y1="35" y2="40"/>
      <line x1="262.5" x2="262.5" y2="5"/>
      <line x1="262.5" x2="262.5" y1="35" y2="40"/>
      <line x1="225" x2="225" y2="5"/>
      <line x1="225" x2="225" y1="35" y2="40"/>
      <line x1="187.5" x2="187.5" y2="5"/>
      <line x1="187.5" x2="187.5" y1="35" y2="40"/>
      <line x1="150" x2="150" y2="5"/>
      <line x1="150" x2="150" y1="35" y2="40"/>
      <line x1="112.5" x2="112.5" y2="5"/>
      <line x1="112.5" x2="112.5" y1="35" y2="40"/>
      <line x1="75" x2="75" y2="5"/>
      <line x1="75" x2="75" y1="35" y2="40"/>
      <line x1="37.5" x2="37.5" y2="5"/>
      <line x1="37.5" x2="37.5" y1="35" y2="40"/>
    </g>
    <g text-anchor="middle">
      <g>
        <g transform="translate(0,20)"/>
        <g transform="translate(18.75,16)">
          <text x="562.5" font-size="14" font-family="sans-serif" font-weight="normal">0</text>
          <text x="525" font-size="14" font-family="sans-serif" font-weight="normal">1</text>
          <text x="450" font-size="14" font-family="sans-serif" font-weight="normal">3</text>
          <text x="412.5" font-size="14" font-family="sans-serif" font-weight="normal">4</text>
          <text x="0" font-size="14" font-family="sans-serif" font-weight="normal">15</text>
        </g>
        <g transform="translate(18.75,44)">
          <text x="562.5" font-size="14" font-family="sans-serif" font-weight="normal">
            <tspan>1</tspan>
          </text>
          <text x="487.5" font-size="14" font-family="sans-serif" font-weight="normal">
            <tspan>OpCode</tspan>
          </text>
          <text x="206.25" font-size="14" font-family="sans-serif" font-weight="normal">
            <tspan>Imm</tspan>
          </text>
        </g>
        <g transform="translate(18.75,80)">
          <text x="562.5" font-size="14" font-family="sans-serif" font-weight="normal">
            <tspan>Size</tspan>
          </text>
        </g>
      </g>
    </g>
  </g>
</svg>

