<?xml version="1.0" encoding="UTF-8" standalone="no"?>
<!-- Created by Symbolator http://kevinpt.github.io/symbolator -->
<svg xmlns="http://www.w3.org/2000/svg"
xmlns:xlink="http://www.w3.org/1999/xlink"
xml:space="preserve"
width="659" height="241" viewBox="-78 -20 659.0 241.0" version="1.1">
<style type="text/css">
<![CDATA[
.fnt1 {fill:#000000;
    font-family:Helvetica; font-size:12pt; font-weight:normal; font-style:normal;}
.label {fill:#000;
  text-anchor:middle;
  font-size:16pt; font-weight:bold; font-family:Sans;}
.link {fill: #0D47A1;}
.link:hover {fill: #0D47A1; text-decoration:underline;}
.link:visited {fill: #4A148C;}
]]>
</style>
<defs>
<marker id="clock" markerWidth="8.0" markerHeight="15.0" viewBox="0 0 8.0 15.0" refX="0.5" refY="7.5" orient="auto" markerUnits="userSpaceOnUse">
<g transform="translate(0.5,7.5)"><path d="M 0 -7 L 0 7 L 7 0 z" stroke="#000000" fill="#FFFFFF" stroke-width="1"/>
</g>
</marker>
</defs>
<rect x="-78" y="-20" width="100%" height="100%" fill="white"/><g transform="translate(0,0)">
<rect x="0" y="-15.0" width="480" height="230.0" stroke="#000000" fill="#C5DBFC" stroke-width="1"/>
<g transform="translate(0,0)">
<line x1="-20" y1="0" x2="0" y2="0" stroke="#000000" fill="none" stroke-width="1"/>
<text class="fnt1" x="10" y="0" text-anchor="normal" dy="7.0">jtag_tck</text>
</g>
<g transform="translate(0,20)">
<line x1="-20" y1="0" x2="0" y2="0" stroke="#000000" fill="none" stroke-width="1"/>
<text class="fnt1" x="10" y="0" text-anchor="normal" dy="7.0">jtag_tms</text>
</g>
<g transform="translate(0,40)">
<line x1="-20" y1="0" x2="0" y2="0" stroke="#000000" fill="none" stroke-width="1"/>
<text class="fnt1" x="10" y="0" text-anchor="normal" dy="7.0">jtag_tdi</text>
</g>
<g transform="translate(0,60)">
<line x1="-20" y1="0" x2="0" y2="0" stroke="#000000" fill="none" stroke-width="1"/>
<text class="fnt1" x="10" y="0" text-anchor="normal" dy="7.0">jtag_trst</text>
</g>
<g transform="translate(0,80)">
<line x1="-20" y1="0" x2="0" y2="0" stroke="#000000" fill="none" stroke-width="1"/>
<text class="fnt1" x="10" y="0" text-anchor="normal" dy="7.0">sys_rstn</text>
</g>
<g transform="translate(0,100)">
<line x1="-20" y1="0" x2="0" y2="0" stroke="#000000" fill="none" stroke-width="1" marker-end="url(#clock)"/>
<text class="fnt1" x="10" y="0" text-anchor="normal" dy="7.0">cpu_clk</text>
</g>
<g transform="translate(0,120)">
<line x1="-20" y1="0" x2="0" y2="0" stroke="#000000" fill="none" stroke-width="3"/>
<text class="fnt1" x="10" y="0" text-anchor="normal" dy="7.0">cpu_imem_to_debug_data</text>
<text class="fnt1" x="-30" y="0" text-anchor="end" dy="7.0" style="fill:#969696"> <tspan fill="#039BE5">[63:0]</tspan></text>
</g>
<g transform="translate(0,140)">
<line x1="-20" y1="0" x2="0" y2="0" stroke="#000000" fill="none" stroke-width="1"/>
<text class="fnt1" x="10" y="0" text-anchor="normal" dy="7.0">cpu_imem_to_debug_data_ready</text>
</g>
<g transform="translate(0,160)">
<line x1="-20" y1="0" x2="0" y2="0" stroke="#000000" fill="none" stroke-width="3"/>
<text class="fnt1" x="10" y="0" text-anchor="normal" dy="7.0">cpu_dmem_to_debug_data</text>
<text class="fnt1" x="-30" y="0" text-anchor="end" dy="7.0" style="fill:#969696"> <tspan fill="#039BE5">[63:0]</tspan></text>
</g>
<g transform="translate(0,180)">
<line x1="-20" y1="0" x2="0" y2="0" stroke="#000000" fill="none" stroke-width="1"/>
<text class="fnt1" x="10" y="0" text-anchor="normal" dy="7.0">cpu_dmem_to_debug_data_ready</text>
</g>
<g transform="translate(480,0)">
<line x1="20" y1="0" x2="0" y2="0" stroke="#000000" fill="none" stroke-width="1"/>
<text class="fnt1" x="-10" y="0" text-anchor="end" dy="7.0">jtag_tdo</text>
</g>
<g transform="translate(480,20)">
<line x1="20" y1="0" x2="0" y2="0" stroke="#000000" fill="none" stroke-width="3"/>
<text class="fnt1" x="-10" y="0" text-anchor="end" dy="7.0">cpu_imem_addr</text>
<text class="fnt1" x="30" y="0" text-anchor="normal" dy="7.0" style="fill:#969696">reg <tspan fill="#039BE5">[63:0]</tspan></text>
</g>
<g transform="translate(480,40)">
<line x1="20" y1="0" x2="0" y2="0" stroke="#000000" fill="none" stroke-width="3"/>
<text class="fnt1" x="-10" y="0" text-anchor="end" dy="7.0">cpu_debug_to_imem_data</text>
<text class="fnt1" x="30" y="0" text-anchor="normal" dy="7.0" style="fill:#969696">reg <tspan fill="#039BE5">[63:0]</tspan></text>
</g>
<g transform="translate(480,60)">
<line x1="20" y1="0" x2="0" y2="0" stroke="#000000" fill="none" stroke-width="1"/>
<text class="fnt1" x="-10" y="0" text-anchor="end" dy="7.0">cpu_imem_ce</text>
<text class="fnt1" x="30" y="0" text-anchor="normal" dy="7.0" style="fill:#969696">reg</text>
</g>
<g transform="translate(480,80)">
<line x1="20" y1="0" x2="0" y2="0" stroke="#000000" fill="none" stroke-width="1"/>
<text class="fnt1" x="-10" y="0" text-anchor="end" dy="7.0">cpu_imem_we</text>
<text class="fnt1" x="30" y="0" text-anchor="normal" dy="7.0" style="fill:#969696">reg</text>
</g>
<g transform="translate(480,100)">
<line x1="20" y1="0" x2="0" y2="0" stroke="#000000" fill="none" stroke-width="3"/>
<text class="fnt1" x="-10" y="0" text-anchor="end" dy="7.0">cpu_dmem_addr</text>
<text class="fnt1" x="30" y="0" text-anchor="normal" dy="7.0" style="fill:#969696">reg <tspan fill="#039BE5">[63:0]</tspan></text>
</g>
<g transform="translate(480,120)">
<line x1="20" y1="0" x2="0" y2="0" stroke="#000000" fill="none" stroke-width="3"/>
<text class="fnt1" x="-10" y="0" text-anchor="end" dy="7.0">cpu_debug_to_dmem_data</text>
<text class="fnt1" x="30" y="0" text-anchor="normal" dy="7.0" style="fill:#969696">reg <tspan fill="#039BE5">[63:0]</tspan></text>
</g>
<g transform="translate(480,140)">
<line x1="20" y1="0" x2="0" y2="0" stroke="#000000" fill="none" stroke-width="1"/>
<text class="fnt1" x="-10" y="0" text-anchor="end" dy="7.0">cpu_dmem_ce</text>
<text class="fnt1" x="30" y="0" text-anchor="normal" dy="7.0" style="fill:#969696">reg</text>
</g>
<g transform="translate(480,160)">
<line x1="20" y1="0" x2="0" y2="0" stroke="#000000" fill="none" stroke-width="1"/>
<text class="fnt1" x="-10" y="0" text-anchor="end" dy="7.0">cpu_dmem_we</text>
<text class="fnt1" x="30" y="0" text-anchor="normal" dy="7.0" style="fill:#969696">reg</text>
</g>
<g transform="translate(480,180)">
<line x1="20" y1="0" x2="0" y2="0" stroke="#000000" fill="none" stroke-width="1"/>
<text class="fnt1" x="-10" y="0" text-anchor="end" dy="7.0">cpu_halt_cpu</text>
<text class="fnt1" x="30" y="0" text-anchor="normal" dy="7.0" style="fill:#969696">reg</text>
</g>
<g transform="translate(480,200)">
<line x1="20" y1="0" x2="0" y2="0" stroke="#000000" fill="none" stroke-width="1"/>
<text class="fnt1" x="-10" y="0" text-anchor="end" dy="7.0">cpu_resetn_cpu</text>
</g>
</g>
<rect x="1.0" y="-14.0" width="478.0" height="228.0" stroke="#000000" fill="none" stroke-width="3"/>
</svg>