<svg xmlns="http://www.w3.org/2000/svg" width="1209" height="85" viewBox="0 0 1209 85">
  <g transform="translate(4.5,0.5)">
    <g stroke="black" stroke-width="1" stroke-linecap="round" transform="translate(0,20)">
      <line x2="1200"/>
      <line y2="40"/>
      <line x2="1200" y1="40" y2="40"/>
      <line x1="1200" x2="1200" y2="40"/>
      <line x1="1181.25" x2="1181.25" y2="5"/>
      <line x1="1181.25" x2="1181.25" y1="35" y2="40"/>
      <line x1="1162.5" x2="1162.5" y2="40"/>
      <line x1="1143.75" x2="1143.75" y2="5"/>
      <line x1="1143.75" x2="1143.75" y1="35" y2="40"/>
      <line x1="1125" x2="1125" y2="5"/>
      <line x1="1125" x2="1125" y1="35" y2="40"/>
      <line x1="1106.25" x2="1106.25" y2="5"/>
      <line x1="1106.25" x2="1106.25" y1="35" y2="40"/>
      <line x1="1087.5" x2="1087.5" y2="5"/>
      <line x1="1087.5" x2="1087.5" y1="35" y2="40"/>
      <line x1="1068.75" x2="1068.75" y2="40"/>
      <line x1="1050" x2="1050" y2="5"/>
      <line x1="1050" x2="1050" y1="35" y2="40"/>
      <line x1="1031.25" x2="1031.25" y2="40"/>
      <line x1="1012.5" x2="1012.5" y2="5"/>
      <line x1="1012.5" x2="1012.5" y1="35" y2="40"/>
      <line x1="993.75" x2="993.75" y2="5"/>
      <line x1="993.75" x2="993.75" y1="35" y2="40"/>
      <line x1="975" x2="975" y2="5"/>
      <line x1="975" x2="975" y1="35" y2="40"/>
      <line x1="956.25" x2="956.25" y2="5"/>
      <line x1="956.25" x2="956.25" y1="35" y2="40"/>
      <line x1="937.5" x2="937.5" y2="5"/>
      <line x1="937.5" x2="937.5" y1="35" y2="40"/>
      <line x1="918.75" x2="918.75" y2="40"/>
      <line x1="900" x2="900" y2="5"/>
      <line x1="900" x2="900" y1="35" y2="40"/>
      <line x1="881.25" x2="881.25" y2="5"/>
      <line x1="881.25" x2="881.25" y1="35" y2="40"/>
      <line x1="862.5" x2="862.5" y2="5"/>
      <line x1="862.5" x2="862.5" y1="35" y2="40"/>
      <line x1="843.75" x2="843.75" y2="5"/>
      <line x1="843.75" x2="843.75" y1="35" y2="40"/>
      <line x1="825" x2="825" y2="5"/>
      <line x1="825" x2="825" y1="35" y2="40"/>
      <line x1="806.25" x2="806.25" y2="5"/>
      <line x1="806.25" x2="806.25" y1="35" y2="40"/>
      <line x1="787.5" x2="787.5" y2="5"/>
      <line x1="787.5" x2="787.5" y1="35" y2="40"/>
      <line x1="768.75" x2="768.75" y2="5"/>
      <line x1="768.75" x2="768.75" y1="35" y2="40"/>
      <line x1="750" x2="750" y2="5"/>
      <line x1="750" x2="750" y1="35" y2="40"/>
      <line x1="731.25" x2="731.25" y2="5"/>
      <line x1="731.25" x2="731.25" y1="35" y2="40"/>
      <line x1="712.5" x2="712.5" y2="5"/>
      <line x1="712.5" x2="712.5" y1="35" y2="40"/>
      <line x1="693.75" x2="693.75" y2="5"/>
      <line x1="693.75" x2="693.75" y1="35" y2="40"/>
      <line x1="675" x2="675" y2="5"/>
      <line x1="675" x2="675" y1="35" y2="40"/>
      <line x1="656.25" x2="656.25" y2="5"/>
      <line x1="656.25" x2="656.25" y1="35" y2="40"/>
      <line x1="637.5" x2="637.5" y2="5"/>
      <line x1="637.5" x2="637.5" y1="35" y2="40"/>
      <line x1="618.75" x2="618.75" y2="5"/>
      <line x1="618.75" x2="618.75" y1="35" y2="40"/>
      <line x1="600" x2="600" y2="5"/>
      <line x1="600" x2="600" y1="35" y2="40"/>
      <line x1="581.25" x2="581.25" y2="5"/>
      <line x1="581.25" x2="581.25" y1="35" y2="40"/>
      <line x1="562.5" x2="562.5" y2="5"/>
      <line x1="562.5" x2="562.5" y1="35" y2="40"/>
      <line x1="543.75" x2="543.75" y2="5"/>
      <line x1="543.75" x2="543.75" y1="35" y2="40"/>
      <line x1="525" x2="525" y2="5"/>
      <line x1="525" x2="525" y1="35" y2="40"/>
      <line x1="506.25" x2="506.25" y2="5"/>
      <line x1="506.25" x2="506.25" y1="35" y2="40"/>
      <line x1="487.5" x2="487.5" y2="5"/>
      <line x1="487.5" x2="487.5" y1="35" y2="40"/>
      <line x1="468.75" x2="468.75" y2="5"/>
      <line x1="468.75" x2="468.75" y1="35" y2="40"/>
      <line x1="450" x2="450" y2="5"/>
      <line x1="450" x2="450" y1="35" y2="40"/>
      <line x1="431.25" x2="431.25" y2="5"/>
      <line x1="431.25" x2="431.25" y1="35" y2="40"/>
      <line x1="412.5" x2="412.5" y2="5"/>
      <line x1="412.5" x2="412.5" y1="35" y2="40"/>
      <line x1="393.75" x2="393.75" y2="5"/>
      <line x1="393.75" x2="393.75" y1="35" y2="40"/>
      <line x1="375" x2="375" y2="5"/>
      <line x1="375" x2="375" y1="35" y2="40"/>
      <line x1="356.25" x2="356.25" y2="5"/>
      <line x1="356.25" x2="356.25" y1="35" y2="40"/>
      <line x1="337.5" x2="337.5" y2="5"/>
      <line x1="337.5" x2="337.5" y1="35" y2="40"/>
      <line x1="318.75" x2="318.75" y2="5"/>
      <line x1="318.75" x2="318.75" y1="35" y2="40"/>
      <line x1="300" x2="300" y2="5"/>
      <line x1="300" x2="300" y1="35" y2="40"/>
      <line x1="281.25" x2="281.25" y2="5"/>
      <line x1="281.25" x2="281.25" y1="35" y2="40"/>
      <line x1="262.5" x2="262.5" y2="5"/>
      <line x1="262.5" x2="262.5" y1="35" y2="40"/>
      <line x1="243.75" x2="243.75" y2="5"/>
      <line x1="243.75" x2="243.75" y1="35" y2="40"/>
      <line x1="225" x2="225" y2="5"/>
      <line x1="225" x2="225" y1="35" y2="40"/>
      <line x1="206.25" x2="206.25" y2="5"/>
      <line x1="206.25" x2="206.25" y1="35" y2="40"/>
      <line x1="187.5" x2="187.5" y2="5"/>
      <line x1="187.5" x2="187.5" y1="35" y2="40"/>
      <line x1="168.75" x2="168.75" y2="5"/>
      <line x1="168.75" x2="168.75" y1="35" y2="40"/>
      <line x1="150" x2="150" y2="5"/>
      <line x1="150" x2="150" y1="35" y2="40"/>
      <line x1="131.25" x2="131.25" y2="5"/>
      <line x1="131.25" x2="131.25" y1="35" y2="40"/>
      <line x1="112.5" x2="112.5" y2="5"/>
      <line x1="112.5" x2="112.5" y1="35" y2="40"/>
      <line x1="93.75" x2="93.75" y2="5"/>
      <line x1="93.75" x2="93.75" y1="35" y2="40"/>
      <line x1="75" x2="75" y2="5"/>
      <line x1="75" x2="75" y1="35" y2="40"/>
      <line x1="56.25" x2="56.25" y2="5"/>
      <line x1="56.25" x2="56.25" y1="35" y2="40"/>
      <line x1="37.5" x2="37.5" y2="5"/>
      <line x1="37.5" x2="37.5" y1="35" y2="40"/>
      <line x1="18.75" x2="18.75" y2="5"/>
      <line x1="18.75" x2="18.75" y1="35" y2="40"/>
    </g>
    <g text-anchor="middle">
      <g>
        <g transform="translate(0,20)"/>
        <g transform="translate(9.375,16)">
          <text x="1181.25" font-size="14" font-family="sans-serif" font-weight="normal">0</text>
          <text x="1162.5" font-size="14" font-family="sans-serif" font-weight="normal">1</text>
          <text x="1143.75" font-size="14" font-family="sans-serif" font-weight="normal">2</text>
          <text x="1068.75" font-size="14" font-family="sans-serif" font-weight="normal">6</text>
          <text x="1050" font-size="14" font-family="sans-serif" font-weight="normal">7</text>
          <text x="1031.25" font-size="14" font-family="sans-serif" font-weight="normal">8</text>
          <text x="1012.5" font-size="14" font-family="sans-serif" font-weight="normal">9</text>
          <text x="918.75" font-size="14" font-family="sans-serif" font-weight="normal">14</text>
          <text x="900" font-size="14" font-family="sans-serif" font-weight="normal">15</text>
          <text x="18.75" font-size="14" font-family="sans-serif" font-weight="normal">62</text>
        </g>
        <g transform="translate(9.375,44)">
          <text x="1171.875" font-size="14" font-family="sans-serif" font-weight="normal">
            <tspan>11</tspan>
          </text>
          <text x="1106.25" font-size="14" font-family="sans-serif" font-weight="normal">
            <tspan>111</tspan>
          </text>
          <text x="1040.625" font-size="14" font-family="sans-serif" font-weight="normal">
            <tspan>OpCode</tspan>
          </text>
          <text x="965.625" font-size="14" font-family="sans-serif" font-weight="normal">
            <tspan>Rs</tspan>
          </text>
          <text x="459.375" font-size="14" font-family="sans-serif" font-weight="normal">
            <tspan>Imm</tspan>
          </text>
        </g>
        <g transform="translate(9.375,80)">
          <text x="1171.875" font-size="14" font-family="sans-serif" font-weight="normal">
            <tspan>Size</tspan>
          </text>
          <text x="1106.25" font-size="14" font-family="sans-serif" font-weight="normal">
            <tspan>OpType</tspan>
          </text>
        </g>
      </g>
    </g>
  </g>
</svg>

