<svg xmlns="http://www.w3.org/2000/svg" width="909" height="85" viewBox="0 0 909 85">
  <g transform="translate(4.5,0.5)">
    <g stroke="black" stroke-width="1" stroke-linecap="round" transform="translate(0,20)">
      <line x2="900"/>
      <line y2="40"/>
      <line x2="900" y1="40" y2="40"/>
      <line x1="900" x2="900" y2="40"/>
      <line x1="871.875" x2="871.875" y2="5"/>
      <line x1="871.875" x2="871.875" y1="35" y2="40"/>
      <line x1="843.75" x2="843.75" y2="40"/>
      <line x1="815.625" x2="815.625" y2="5"/>
      <line x1="815.625" x2="815.625" y1="35" y2="40"/>
      <line x1="787.5" x2="787.5" y2="5"/>
      <line x1="787.5" x2="787.5" y1="35" y2="40"/>
      <line x1="759.375" x2="759.375" y2="5"/>
      <line x1="759.375" x2="759.375" y1="35" y2="40"/>
      <line x1="731.25" x2="731.25" y2="5"/>
      <line x1="731.25" x2="731.25" y1="35" y2="40"/>
      <line x1="703.125" x2="703.125" y2="40"/>
      <line x1="675" x2="675" y2="5"/>
      <line x1="675" x2="675" y1="35" y2="40"/>
      <line x1="646.875" x2="646.875" y2="40"/>
      <line x1="618.75" x2="618.75" y2="5"/>
      <line x1="618.75" x2="618.75" y1="35" y2="40"/>
      <line x1="590.625" x2="590.625" y2="5"/>
      <line x1="590.625" x2="590.625" y1="35" y2="40"/>
      <line x1="562.5" x2="562.5" y2="5"/>
      <line x1="562.5" x2="562.5" y1="35" y2="40"/>
      <line x1="534.375" x2="534.375" y2="5"/>
      <line x1="534.375" x2="534.375" y1="35" y2="40"/>
      <line x1="506.25" x2="506.25" y2="5"/>
      <line x1="506.25" x2="506.25" y1="35" y2="40"/>
      <line x1="478.125" x2="478.125" y2="40"/>
      <line x1="450" x2="450" y2="5"/>
      <line x1="450" x2="450" y1="35" y2="40"/>
      <line x1="421.875" x2="421.875" y2="5"/>
      <line x1="421.875" x2="421.875" y1="35" y2="40"/>
      <line x1="393.75" x2="393.75" y2="5"/>
      <line x1="393.75" x2="393.75" y1="35" y2="40"/>
      <line x1="365.625" x2="365.625" y2="5"/>
      <line x1="365.625" x2="365.625" y1="35" y2="40"/>
      <line x1="337.5" x2="337.5" y2="5"/>
      <line x1="337.5" x2="337.5" y1="35" y2="40"/>
      <line x1="309.375" x2="309.375" y2="40"/>
      <line x1="281.25" x2="281.25" y2="5"/>
      <line x1="281.25" x2="281.25" y1="35" y2="40"/>
      <line x1="253.125" x2="253.125" y2="5"/>
      <line x1="253.125" x2="253.125" y1="35" y2="40"/>
      <line x1="225" x2="225" y2="5"/>
      <line x1="225" x2="225" y1="35" y2="40"/>
      <line x1="196.875" x2="196.875" y2="5"/>
      <line x1="196.875" x2="196.875" y1="35" y2="40"/>
      <line x1="168.75" x2="168.75" y2="5"/>
      <line x1="168.75" x2="168.75" y1="35" y2="40"/>
      <line x1="140.625" x2="140.625" y2="40"/>
      <line x1="112.5" x2="112.5" y2="5"/>
      <line x1="112.5" x2="112.5" y1="35" y2="40"/>
      <line x1="84.375" x2="84.375" y2="5"/>
      <line x1="84.375" x2="84.375" y1="35" y2="40"/>
      <line x1="56.25" x2="56.25" y2="5"/>
      <line x1="56.25" x2="56.25" y1="35" y2="40"/>
      <line x1="28.125" x2="28.125" y2="5"/>
      <line x1="28.125" x2="28.125" y1="35" y2="40"/>
    </g>
    <g text-anchor="middle">
      <g>
        <g transform="translate(0,20)"/>
        <g transform="translate(14.0625,16)">
          <text x="871.875" font-size="14" font-family="sans-serif" font-weight="normal">0</text>
          <text x="843.75" font-size="14" font-family="sans-serif" font-weight="normal">1</text>
          <text x="815.625" font-size="14" font-family="sans-serif" font-weight="normal">2</text>
          <text x="703.125" font-size="14" font-family="sans-serif" font-weight="normal">6</text>
          <text x="675" font-size="14" font-family="sans-serif" font-weight="normal">7</text>
          <text x="646.875" font-size="14" font-family="sans-serif" font-weight="normal">8</text>
          <text x="618.75" font-size="14" font-family="sans-serif" font-weight="normal">9</text>
          <text x="478.125" font-size="14" font-family="sans-serif" font-weight="normal">14</text>
          <text x="450" font-size="14" font-family="sans-serif" font-weight="normal">15</text>
          <text x="309.375" font-size="14" font-family="sans-serif" font-weight="normal">20</text>
          <text x="281.25" font-size="14" font-family="sans-serif" font-weight="normal">21</text>
          <text x="140.625" font-size="14" font-family="sans-serif" font-weight="normal">26</text>
          <text x="112.5" font-size="14" font-family="sans-serif" font-weight="normal">27</text>
          <text x="0" font-size="14" font-family="sans-serif" font-weight="normal">31</text>
        </g>
        <g transform="translate(14.0625,44)">
          <text x="857.8125" font-size="14" font-family="sans-serif" font-weight="normal">
            <tspan>10</tspan>
          </text>
          <text x="759.375" font-size="14" font-family="sans-serif" font-weight="normal">
            <tspan>OpType</tspan>
          </text>
          <text x="660.9375" font-size="14" font-family="sans-serif" font-weight="normal">
            <tspan>OpCode</tspan>
          </text>
          <text x="548.4375" font-size="14" font-family="sans-serif" font-weight="normal">
            <tspan>Rd</tspan>
          </text>
          <text x="379.6875" font-size="14" font-family="sans-serif" font-weight="normal">
            <tspan>Rd2</tspan>
          </text>
          <text x="210.9375" font-size="14" font-family="sans-serif" font-weight="normal">
            <tspan>Rs1</tspan>
          </text>
          <text x="56.25" font-size="14" font-family="sans-serif" font-weight="normal">
            <tspan>Rs2</tspan>
          </text>
        </g>
        <g transform="translate(14.0625,80)">
          <text x="857.8125" font-size="14" font-family="sans-serif" font-weight="normal">
            <tspan>Size</tspan>
          </text>
        </g>
      </g>
    </g>
  </g>
</svg>

